# xmcd CD database file
#
# Track frame offsets:
#	150
#	19346
#	39391
#	59188
#	72368
#	88512
#	106359
#	126938
#	148408
#	164353
#	178547
#	198860
#	220935
#
# Disc length: 3215 seconds
#
# Revision: 0
# Processed by: cddbd v1.5.2PL0 Copyright (c) Steve Scherf et al.
# Submitted via: CDex 1.51
#
DISCID=c60c8d0d
DTITLE=Rigmor Gustafsson - Alone With You
DYEAR=2007
DGENRE=Jazz
TTITLE0=In My World
TTITLE1=Voodo Skills
TTITLE2=Still
TTITLE3=Special Effects
TTITLE4=Joy To Me
TTITLE5=You Don't Have To Worry
TTITLE6=Will Our Love Be There
TTITLE7=Nothing's Better Than Love
TTITLE8=Medan Du Väntar
TTITLE9=Don't Do It In Here
TTITLE10=It's All There
TTITLE11=On Higher Ground
TTITLE12=Alone With You
EXTD=YEAR: 2007
EXTT0=
EXTT1=
EXTT2=
EXTT3=
EXTT4=
EXTT5=
EXTT6=
EXTT7=
EXTT8=
EXTT9=
EXTT10=
EXTT11=
EXTT12=
PLAYORDER=
